<svg width="188" height="248" viewBox="0 0 188 248" fill="none" xmlns="http://www.w3.org/2000/svg">
<g clip-path="url(#clip0_1_47099)">
<rect width="188" height="248" rx="10" fill="#141522"/>
<rect width="188" height="248" rx="10" fill="#141522" fill-opacity="0.04"/>
<circle cx="-14" cy="-20" r="80" fill="white" fill-opacity="0.08"/>
<circle cx="200" cy="248" r="80" fill="white" fill-opacity="0.08"/>
<rect x="16" y="192" width="156" height="40" rx="10" fill="white"/>
<path d="M48.7898 217.144C48.1578 217.144 47.5698 217.028 47.0258 216.796C46.4898 216.564 46.0178 216.244 45.6098 215.836C45.2098 215.42 44.8978 214.932 44.6738 214.372C44.4498 213.812 44.3378 213.196 44.3378 212.524C44.3378 211.86 44.4458 211.248 44.6618 210.688C44.8858 210.12 45.1978 209.632 45.5978 209.224C45.9978 208.808 46.4658 208.488 47.0018 208.264C47.5378 208.032 48.1258 207.916 48.7658 207.916C49.3978 207.916 49.9618 208.024 50.4578 208.24C50.9618 208.456 51.3858 208.74 51.7298 209.092C52.0738 209.436 52.3218 209.812 52.4738 210.22L51.2138 210.832C51.0298 210.344 50.7258 209.952 50.3018 209.656C49.8778 209.352 49.3658 209.2 48.7658 209.2C48.1738 209.2 47.6498 209.34 47.1938 209.62C46.7378 209.9 46.3818 210.288 46.1258 210.784C45.8778 211.28 45.7538 211.86 45.7538 212.524C45.7538 213.188 45.8818 213.772 46.1378 214.276C46.4018 214.772 46.7618 215.16 47.2178 215.44C47.6738 215.712 48.1978 215.848 48.7898 215.848C49.2858 215.848 49.7378 215.748 50.1458 215.548C50.5618 215.34 50.8938 215.052 51.1418 214.684C51.3898 214.308 51.5138 213.872 51.5138 213.376V212.764L52.1498 213.34H48.7658V212.14H52.9178V212.98C52.9178 213.636 52.8058 214.224 52.5818 214.744C52.3578 215.256 52.0538 215.692 51.6698 216.052C51.2858 216.412 50.8458 216.684 50.3498 216.868C49.8538 217.052 49.3338 217.144 48.7898 217.144ZM57.1235 217.144C56.4995 217.144 55.9275 216.996 55.4075 216.7C54.8955 216.404 54.4875 216 54.1835 215.488C53.8795 214.976 53.7275 214.396 53.7275 213.748C53.7275 213.092 53.8795 212.512 54.1835 212.008C54.4875 211.496 54.8955 211.096 55.4075 210.808C55.9195 210.512 56.4915 210.364 57.1235 210.364C57.7635 210.364 58.3355 210.512 58.8395 210.808C59.3515 211.096 59.7555 211.496 60.0515 212.008C60.3555 212.512 60.5075 213.092 60.5075 213.748C60.5075 214.404 60.3555 214.988 60.0515 215.5C59.7475 216.012 59.3395 216.416 58.8275 216.712C58.3155 217 57.7475 217.144 57.1235 217.144ZM57.1235 215.884C57.5075 215.884 57.8475 215.792 58.1435 215.608C58.4395 215.424 58.6715 215.172 58.8395 214.852C59.0155 214.524 59.1035 214.156 59.1035 213.748C59.1035 213.34 59.0155 212.976 58.8395 212.656C58.6715 212.336 58.4395 212.084 58.1435 211.9C57.8475 211.716 57.5075 211.624 57.1235 211.624C56.7475 211.624 56.4075 211.716 56.1035 211.9C55.8075 212.084 55.5715 212.336 55.3955 212.656C55.2275 212.976 55.1435 213.34 55.1435 213.748C55.1435 214.156 55.2275 214.524 55.3955 214.852C55.5715 215.172 55.8075 215.424 56.1035 215.608C56.4075 215.792 56.7475 215.884 57.1235 215.884ZM65.165 217V209.32H62.789V208.06H68.909V209.32H66.569V217H65.165ZM71.884 217.144C71.26 217.144 70.688 216.996 70.168 216.7C69.656 216.404 69.248 216 68.944 215.488C68.64 214.976 68.488 214.396 68.488 213.748C68.488 213.092 68.64 212.512 68.944 212.008C69.248 211.496 69.656 211.096 70.168 210.808C70.68 210.512 71.252 210.364 71.884 210.364C72.524 210.364 73.096 210.512 73.6 210.808C74.112 211.096 74.516 211.496 74.812 212.008C75.116 212.512 75.268 213.092 75.268 213.748C75.268 214.404 75.116 214.988 74.812 215.5C74.508 216.012 74.1 216.416 73.588 216.712C73.076 217 72.508 217.144 71.884 217.144ZM71.884 215.884C72.268 215.884 72.608 215.792 72.904 215.608C73.2 215.424 73.432 215.172 73.6 214.852C73.776 214.524 73.864 214.156 73.864 213.748C73.864 213.34 73.776 212.976 73.6 212.656C73.432 212.336 73.2 212.084 72.904 211.9C72.608 211.716 72.268 211.624 71.884 211.624C71.508 211.624 71.168 211.716 70.864 211.9C70.568 212.084 70.332 212.336 70.156 212.656C69.988 212.976 69.904 213.34 69.904 213.748C69.904 214.156 69.988 214.524 70.156 214.852C70.332 215.172 70.568 215.424 70.864 215.608C71.168 215.792 71.508 215.884 71.884 215.884ZM78.3415 217V208.06H79.7575V211.996H83.8975V208.06H85.3015V217H83.8975V213.256H79.7575V217H78.3415ZM89.83 217.144C89.182 217.144 88.606 216.996 88.102 216.7C87.606 216.396 87.218 215.988 86.938 215.476C86.658 214.956 86.518 214.376 86.518 213.736C86.518 213.08 86.658 212.5 86.938 211.996C87.226 211.492 87.61 211.096 88.09 210.808C88.57 210.512 89.114 210.364 89.722 210.364C90.21 210.364 90.646 210.448 91.03 210.616C91.414 210.784 91.738 211.016 92.002 211.312C92.266 211.6 92.466 211.932 92.602 212.308C92.746 212.684 92.818 213.084 92.818 213.508C92.818 213.612 92.814 213.72 92.806 213.832C92.798 213.944 92.782 214.048 92.758 214.144H87.586V213.064H91.99L91.342 213.556C91.422 213.164 91.394 212.816 91.258 212.512C91.13 212.2 90.93 211.956 90.658 211.78C90.394 211.596 90.082 211.504 89.722 211.504C89.362 211.504 89.042 211.596 88.762 211.78C88.482 211.956 88.266 212.212 88.114 212.548C87.962 212.876 87.902 213.276 87.934 213.748C87.894 214.188 87.954 214.572 88.114 214.9C88.282 215.228 88.514 215.484 88.81 215.668C89.114 215.852 89.458 215.944 89.842 215.944C90.234 215.944 90.566 215.856 90.838 215.68C91.118 215.504 91.338 215.276 91.498 214.996L92.602 215.536C92.474 215.84 92.274 216.116 92.002 216.364C91.738 216.604 91.418 216.796 91.042 216.94C90.674 217.076 90.27 217.144 89.83 217.144ZM93.9014 217V207.916H95.2574V217H93.9014ZM96.6028 219.4V210.508H97.8988V211.852L97.7428 211.54C97.9828 211.172 98.3028 210.884 98.7028 210.676C99.1028 210.468 99.5588 210.364 100.071 210.364C100.687 210.364 101.239 210.512 101.727 210.808C102.223 211.104 102.611 211.508 102.891 212.02C103.179 212.532 103.323 213.108 103.323 213.748C103.323 214.388 103.179 214.964 102.891 215.476C102.611 215.988 102.227 216.396 101.739 216.7C101.251 216.996 100.695 217.144 100.071 217.144C99.5668 217.144 99.1068 217.04 98.6908 216.832C98.2828 216.624 97.9668 216.324 97.7428 215.932L97.9588 215.68V219.4H96.6028ZM99.9388 215.884C100.323 215.884 100.663 215.792 100.959 215.608C101.255 215.424 101.487 215.172 101.655 214.852C101.831 214.524 101.919 214.156 101.919 213.748C101.919 213.34 101.831 212.976 101.655 212.656C101.487 212.336 101.255 212.084 100.959 211.9C100.663 211.716 100.323 211.624 99.9388 211.624C99.5628 211.624 99.2228 211.716 98.9188 211.9C98.6228 212.084 98.3868 212.336 98.2108 212.656C98.0428 212.976 97.9588 213.34 97.9588 213.748C97.9588 214.156 98.0428 214.524 98.2108 214.852C98.3868 215.172 98.6228 215.424 98.9188 215.608C99.2228 215.792 99.5628 215.884 99.9388 215.884ZM110.555 217.144C109.923 217.144 109.335 217.028 108.791 216.796C108.255 216.564 107.787 216.244 107.387 215.836C106.995 215.42 106.687 214.932 106.463 214.372C106.239 213.812 106.127 213.196 106.127 212.524C106.127 211.86 106.235 211.248 106.451 210.688C106.675 210.12 106.987 209.632 107.387 209.224C107.787 208.808 108.255 208.488 108.791 208.264C109.327 208.032 109.915 207.916 110.555 207.916C111.187 207.916 111.751 208.024 112.247 208.24C112.751 208.456 113.175 208.74 113.519 209.092C113.863 209.436 114.111 209.812 114.263 210.22L112.991 210.82C112.799 210.34 112.491 209.952 112.067 209.656C111.651 209.352 111.147 209.2 110.555 209.2C109.963 209.2 109.439 209.34 108.983 209.62C108.527 209.9 108.171 210.288 107.915 210.784C107.667 211.28 107.543 211.86 107.543 212.524C107.543 213.188 107.667 213.772 107.915 214.276C108.171 214.772 108.527 215.16 108.983 215.44C109.439 215.712 109.963 215.848 110.555 215.848C111.147 215.848 111.651 215.7 112.067 215.404C112.491 215.108 112.799 214.72 112.991 214.24L114.263 214.84C114.111 215.24 113.863 215.616 113.519 215.968C113.175 216.32 112.751 216.604 112.247 216.82C111.751 217.036 111.187 217.144 110.555 217.144ZM118.278 217.144C117.63 217.144 117.054 216.996 116.55 216.7C116.054 216.396 115.666 215.988 115.386 215.476C115.106 214.956 114.966 214.376 114.966 213.736C114.966 213.08 115.106 212.5 115.386 211.996C115.674 211.492 116.058 211.096 116.538 210.808C117.018 210.512 117.562 210.364 118.17 210.364C118.658 210.364 119.094 210.448 119.478 210.616C119.862 210.784 120.186 211.016 120.45 211.312C120.714 211.6 120.914 211.932 121.05 212.308C121.194 212.684 121.266 213.084 121.266 213.508C121.266 213.612 121.262 213.72 121.254 213.832C121.246 213.944 121.23 214.048 121.206 214.144H116.034V213.064H120.438L119.79 213.556C119.87 213.164 119.842 212.816 119.706 212.512C119.578 212.2 119.378 211.956 119.106 211.78C118.842 211.596 118.53 211.504 118.17 211.504C117.81 211.504 117.49 211.596 117.21 211.78C116.93 211.956 116.714 212.212 116.562 212.548C116.41 212.876 116.35 213.276 116.382 213.748C116.342 214.188 116.402 214.572 116.562 214.9C116.73 215.228 116.962 215.484 117.258 215.668C117.562 215.852 117.906 215.944 118.29 215.944C118.682 215.944 119.014 215.856 119.286 215.68C119.566 215.504 119.786 215.276 119.946 214.996L121.05 215.536C120.922 215.84 120.722 216.116 120.45 216.364C120.186 216.604 119.866 216.796 119.49 216.94C119.122 217.076 118.718 217.144 118.278 217.144ZM122.35 217V210.508H123.646V211.78L123.49 211.612C123.65 211.204 123.906 210.896 124.258 210.688C124.61 210.472 125.018 210.364 125.482 210.364C125.962 210.364 126.386 210.468 126.754 210.676C127.122 210.884 127.41 211.172 127.618 211.54C127.826 211.908 127.93 212.332 127.93 212.812V217H126.586V213.172C126.586 212.844 126.526 212.568 126.406 212.344C126.286 212.112 126.114 211.936 125.89 211.816C125.674 211.688 125.426 211.624 125.146 211.624C124.866 211.624 124.614 211.688 124.39 211.816C124.174 211.936 124.006 212.112 123.886 212.344C123.766 212.576 123.706 212.852 123.706 213.172V217H122.35ZM131.949 217.072C131.269 217.072 130.741 216.88 130.365 216.496C129.989 216.112 129.801 215.572 129.801 214.876V211.732H128.661V210.508H128.841C129.145 210.508 129.381 210.42 129.549 210.244C129.717 210.068 129.801 209.828 129.801 209.524V209.02H131.157V210.508H132.633V211.732H131.157V214.816C131.157 215.04 131.193 215.232 131.265 215.392C131.337 215.544 131.453 215.664 131.613 215.752C131.773 215.832 131.981 215.872 132.237 215.872C132.301 215.872 132.373 215.868 132.453 215.86C132.533 215.852 132.609 215.844 132.681 215.836V217C132.569 217.016 132.445 217.032 132.309 217.048C132.173 217.064 132.053 217.072 131.949 217.072ZM136.695 217.144C136.047 217.144 135.471 216.996 134.967 216.7C134.471 216.396 134.083 215.988 133.803 215.476C133.523 214.956 133.383 214.376 133.383 213.736C133.383 213.08 133.523 212.5 133.803 211.996C134.091 211.492 134.475 211.096 134.955 210.808C135.435 210.512 135.979 210.364 136.587 210.364C137.075 210.364 137.511 210.448 137.895 210.616C138.279 210.784 138.603 211.016 138.867 211.312C139.131 211.6 139.331 211.932 139.467 212.308C139.611 212.684 139.683 213.084 139.683 213.508C139.683 213.612 139.679 213.72 139.671 213.832C139.663 213.944 139.647 214.048 139.623 214.144H134.451V213.064H138.855L138.207 213.556C138.287 213.164 138.259 212.816 138.123 212.512C137.995 212.2 137.795 211.956 137.523 211.78C137.259 211.596 136.947 211.504 136.587 211.504C136.227 211.504 135.907 211.596 135.627 211.78C135.347 211.956 135.131 212.212 134.979 212.548C134.827 212.876 134.767 213.276 134.799 213.748C134.759 214.188 134.819 214.572 134.979 214.9C135.147 215.228 135.379 215.484 135.675 215.668C135.979 215.852 136.323 215.944 136.707 215.944C137.099 215.944 137.431 215.856 137.703 215.68C137.983 215.504 138.203 215.276 138.363 214.996L139.467 215.536C139.339 215.84 139.139 216.116 138.867 216.364C138.603 216.604 138.283 216.796 137.907 216.94C137.539 217.076 137.135 217.144 136.695 217.144ZM140.767 217V210.508H142.063V211.816L141.943 211.624C142.087 211.2 142.319 210.896 142.639 210.712C142.959 210.52 143.343 210.424 143.791 210.424H144.187V211.66H143.623C143.175 211.66 142.811 211.8 142.531 212.08C142.259 212.352 142.123 212.744 142.123 213.256V217H140.767Z" fill="#141522"/>
<path d="M50.6289 88V76.08H52.5169V81.328H58.0369V76.08H59.9089V88H58.0369V83.008H52.5169V88H50.6289ZM65.9469 88.192C65.0829 88.192 64.3149 87.9947 63.6429 87.6C62.9815 87.1947 62.4642 86.6507 62.0909 85.968C61.7175 85.2747 61.5309 84.5013 61.5309 83.648C61.5309 82.7733 61.7175 82 62.0909 81.328C62.4749 80.656 62.9869 80.128 63.6269 79.744C64.2669 79.3493 64.9922 79.152 65.8029 79.152C66.4535 79.152 67.0349 79.264 67.5469 79.488C68.0589 79.712 68.4909 80.0213 68.8429 80.416C69.1949 80.8 69.4615 81.2427 69.6429 81.744C69.8349 82.2453 69.9309 82.7787 69.9309 83.344C69.9309 83.4827 69.9255 83.6267 69.9149 83.776C69.9042 83.9253 69.8829 84.064 69.8509 84.192H62.9549V82.752H68.8269L67.9629 83.408C68.0695 82.8853 68.0322 82.4213 67.8509 82.016C67.6802 81.6 67.4135 81.2747 67.0509 81.04C66.6989 80.7947 66.2829 80.672 65.8029 80.672C65.3229 80.672 64.8962 80.7947 64.5229 81.04C64.1495 81.2747 63.8615 81.616 63.6589 82.064C63.4562 82.5013 63.3762 83.0347 63.4189 83.664C63.3655 84.2507 63.4455 84.7627 63.6589 85.2C63.8829 85.6373 64.1922 85.9787 64.5869 86.224C64.9922 86.4693 65.4509 86.592 65.9629 86.592C66.4855 86.592 66.9282 86.4747 67.2909 86.24C67.6642 86.0053 67.9575 85.7013 68.1709 85.328L69.6429 86.048C69.4722 86.4533 69.2055 86.8213 68.8429 87.152C68.4909 87.472 68.0642 87.728 67.5629 87.92C67.0722 88.1013 66.5335 88.192 65.9469 88.192ZM71.3754 88V75.888H73.1834V88H71.3754ZM74.9772 91.2V79.344H76.7052V81.136L76.4972 80.72C76.8172 80.2293 77.2439 79.8453 77.7772 79.568C78.3106 79.2907 78.9186 79.152 79.6012 79.152C80.4226 79.152 81.1586 79.3493 81.8092 79.744C82.4706 80.1387 82.9879 80.6773 83.3612 81.36C83.7453 82.0427 83.9373 82.8107 83.9373 83.664C83.9373 84.5173 83.7453 85.2853 83.3612 85.968C82.9879 86.6507 82.4759 87.1947 81.8252 87.6C81.1746 87.9947 80.4332 88.192 79.6012 88.192C78.9292 88.192 78.3159 88.0533 77.7612 87.776C77.2172 87.4987 76.7959 87.0987 76.4972 86.576L76.7852 86.24V91.2H74.9772ZM79.4252 86.512C79.9372 86.512 80.3906 86.3893 80.7852 86.144C81.1799 85.8987 81.4892 85.5627 81.7132 85.136C81.9479 84.6987 82.0652 84.208 82.0652 83.664C82.0652 83.12 81.9479 82.6347 81.7132 82.208C81.4892 81.7813 81.1799 81.4453 80.7852 81.2C80.3906 80.9547 79.9372 80.832 79.4252 80.832C78.9239 80.832 78.4706 80.9547 78.0652 81.2C77.6706 81.4453 77.3559 81.7813 77.1212 82.208C76.8972 82.6347 76.7852 83.12 76.7852 83.664C76.7852 84.208 76.8972 84.6987 77.1212 85.136C77.3559 85.5627 77.6706 85.8987 78.0652 86.144C78.4706 86.3893 78.9239 86.512 79.4252 86.512ZM93.5809 88.192C92.7382 88.192 91.9542 88.0373 91.2289 87.728C90.5142 87.4187 89.8902 86.992 89.3569 86.448C88.8342 85.8933 88.4235 85.2427 88.1249 84.496C87.8262 83.7493 87.6769 82.928 87.6769 82.032C87.6769 81.1467 87.8209 80.3307 88.1089 79.584C88.4075 78.8267 88.8235 78.176 89.3569 77.632C89.8902 77.0773 90.5142 76.6507 91.2289 76.352C91.9435 76.0427 92.7275 75.888 93.5809 75.888C94.4235 75.888 95.1755 76.032 95.8369 76.32C96.5089 76.608 97.0742 76.9867 97.5329 77.456C97.9915 77.9147 98.3222 78.416 98.5249 78.96L96.8289 79.76C96.5729 79.12 96.1622 78.6027 95.5969 78.208C95.0422 77.8027 94.3702 77.6 93.5809 77.6C92.7915 77.6 92.0929 77.7867 91.4849 78.16C90.8769 78.5333 90.4022 79.0507 90.0609 79.712C89.7302 80.3733 89.5649 81.1467 89.5649 82.032C89.5649 82.9173 89.7302 83.696 90.0609 84.368C90.4022 85.0293 90.8769 85.5467 91.4849 85.92C92.0929 86.2827 92.7915 86.464 93.5809 86.464C94.3702 86.464 95.0422 86.2667 95.5969 85.872C96.1622 85.4773 96.5729 84.96 96.8289 84.32L98.5249 85.12C98.3222 85.6533 97.9915 86.1547 97.5329 86.624C97.0742 87.0933 96.5089 87.472 95.8369 87.76C95.1755 88.048 94.4235 88.192 93.5809 88.192ZM103.878 88.192C103.014 88.192 102.246 87.9947 101.574 87.6C100.913 87.1947 100.395 86.6507 100.022 85.968C99.6488 85.2747 99.4621 84.5013 99.4621 83.648C99.4621 82.7733 99.6488 82 100.022 81.328C100.406 80.656 100.918 80.128 101.558 79.744C102.198 79.3493 102.923 79.152 103.734 79.152C104.385 79.152 104.966 79.264 105.478 79.488C105.99 79.712 106.422 80.0213 106.774 80.416C107.126 80.8 107.393 81.2427 107.574 81.744C107.766 82.2453 107.862 82.7787 107.862 83.344C107.862 83.4827 107.857 83.6267 107.846 83.776C107.835 83.9253 107.814 84.064 107.782 84.192H100.886V82.752H106.758L105.894 83.408C106.001 82.8853 105.963 82.4213 105.782 82.016C105.611 81.6 105.345 81.2747 104.982 81.04C104.63 80.7947 104.214 80.672 103.734 80.672C103.254 80.672 102.827 80.7947 102.454 81.04C102.081 81.2747 101.793 81.616 101.59 82.064C101.387 82.5013 101.307 83.0347 101.35 83.664C101.297 84.2507 101.377 84.7627 101.59 85.2C101.814 85.6373 102.123 85.9787 102.518 86.224C102.923 86.4693 103.382 86.592 103.894 86.592C104.417 86.592 104.859 86.4747 105.222 86.24C105.595 86.0053 105.889 85.7013 106.102 85.328L107.574 86.048C107.403 86.4533 107.137 86.8213 106.774 87.152C106.422 87.472 105.995 87.728 105.494 87.92C105.003 88.1013 104.465 88.192 103.878 88.192ZM109.307 88V79.344H111.035V81.04L110.827 80.816C111.04 80.272 111.381 79.8613 111.851 79.584C112.32 79.296 112.864 79.152 113.483 79.152C114.123 79.152 114.688 79.2907 115.179 79.568C115.669 79.8453 116.053 80.2293 116.331 80.72C116.608 81.2107 116.747 81.776 116.747 82.416V88H114.955V82.896C114.955 82.4587 114.875 82.0907 114.715 81.792C114.555 81.4827 114.325 81.248 114.027 81.088C113.739 80.9173 113.408 80.832 113.035 80.832C112.661 80.832 112.325 80.9173 112.027 81.088C111.739 81.248 111.515 81.4827 111.355 81.792C111.195 82.1013 111.115 82.4693 111.115 82.896V88H109.307ZM122.106 88.096C121.199 88.096 120.495 87.84 119.994 87.328C119.492 86.816 119.242 86.096 119.242 85.168V80.976H117.722V79.344H117.962C118.367 79.344 118.682 79.2267 118.906 78.992C119.13 78.7573 119.242 78.4373 119.242 78.032V77.36H121.05V79.344H123.018V80.976H121.05V85.088C121.05 85.3867 121.098 85.6427 121.194 85.856C121.29 86.0587 121.444 86.2187 121.658 86.336C121.871 86.4427 122.148 86.496 122.49 86.496C122.575 86.496 122.671 86.4907 122.778 86.48C122.884 86.4693 122.986 86.4587 123.082 86.448V88C122.932 88.0213 122.767 88.0427 122.586 88.064C122.404 88.0853 122.244 88.096 122.106 88.096ZM128.434 88.192C127.57 88.192 126.802 87.9947 126.13 87.6C125.468 87.1947 124.951 86.6507 124.578 85.968C124.204 85.2747 124.018 84.5013 124.018 83.648C124.018 82.7733 124.204 82 124.578 81.328C124.962 80.656 125.474 80.128 126.114 79.744C126.754 79.3493 127.479 79.152 128.29 79.152C128.94 79.152 129.522 79.264 130.034 79.488C130.546 79.712 130.978 80.0213 131.33 80.416C131.682 80.8 131.948 81.2427 132.13 81.744C132.322 82.2453 132.418 82.7787 132.418 83.344C132.418 83.4827 132.412 83.6267 132.402 83.776C132.391 83.9253 132.37 84.064 132.338 84.192H125.442V82.752H131.314L130.45 83.408C130.556 82.8853 130.519 82.4213 130.338 82.016C130.167 81.6 129.9 81.2747 129.538 81.04C129.186 80.7947 128.77 80.672 128.29 80.672C127.81 80.672 127.383 80.7947 127.01 81.04C126.636 81.2747 126.348 81.616 126.146 82.064C125.943 82.5013 125.863 83.0347 125.906 83.664C125.852 84.2507 125.932 84.7627 126.146 85.2C126.37 85.6373 126.679 85.9787 127.074 86.224C127.479 86.4693 127.938 86.592 128.45 86.592C128.972 86.592 129.415 86.4747 129.778 86.24C130.151 86.0053 130.444 85.7013 130.658 85.328L132.13 86.048C131.959 86.4533 131.692 86.8213 131.33 87.152C130.978 87.472 130.551 87.728 130.05 87.92C129.559 88.1013 129.02 88.192 128.434 88.192ZM133.862 88V79.344H135.59V81.088L135.43 80.832C135.622 80.2667 135.932 79.8613 136.358 79.616C136.785 79.36 137.297 79.232 137.894 79.232H138.422V80.88H137.67C137.073 80.88 136.588 81.0667 136.214 81.44C135.852 81.8027 135.67 82.3253 135.67 83.008V88H133.862Z" fill="white"/>
<path d="M22.1844 115V106.06H23.3604V110.044H27.8364V106.06H29.0244V115H27.8364V111.124H23.3604V115H22.1844ZM32.5326 115.144C32.1086 115.144 31.7326 115.068 31.4046 114.916C31.0846 114.756 30.8326 114.54 30.6486 114.268C30.4646 113.988 30.3726 113.668 30.3726 113.308C30.3726 112.964 30.4446 112.656 30.5886 112.384C30.7406 112.104 30.9726 111.868 31.2846 111.676C31.6046 111.484 32.0046 111.348 32.4846 111.268L34.8846 110.872V111.808L32.7366 112.168C32.3206 112.24 32.0166 112.372 31.8246 112.564C31.6406 112.756 31.5486 112.992 31.5486 113.272C31.5486 113.536 31.6526 113.756 31.8606 113.932C32.0766 114.108 32.3446 114.196 32.6646 114.196C33.0726 114.196 33.4246 114.112 33.7206 113.944C34.0246 113.768 34.2606 113.532 34.4286 113.236C34.6046 112.94 34.6926 112.612 34.6926 112.252V110.608C34.6926 110.256 34.5606 109.972 34.2966 109.756C34.0406 109.532 33.7006 109.42 33.2766 109.42C32.9086 109.42 32.5806 109.516 32.2926 109.708C32.0126 109.892 31.8046 110.14 31.6686 110.452L30.6966 109.948C30.8166 109.652 31.0086 109.388 31.2726 109.156C31.5366 108.916 31.8446 108.728 32.1966 108.592C32.5486 108.456 32.9166 108.388 33.3006 108.388C33.7966 108.388 34.2326 108.484 34.6086 108.676C34.9846 108.86 35.2766 109.12 35.4846 109.456C35.7006 109.784 35.8086 110.168 35.8086 110.608V115H34.7166V113.776L34.9206 113.848C34.7846 114.104 34.6006 114.328 34.3686 114.52C34.1366 114.712 33.8646 114.864 33.5526 114.976C33.2406 115.088 32.9006 115.144 32.5326 115.144ZM38.9817 115L36.4497 108.532H37.6977L39.7257 114.004H39.2937L41.3337 108.532H42.5817L40.0377 115H38.9817ZM43.3402 115V108.532H44.4562V115H43.3402ZM43.3402 107.5V106.06H44.4562V107.5H43.3402ZM45.9478 115V108.532H47.0398V109.792L46.8598 109.684C47.0198 109.276 47.2758 108.96 47.6278 108.736C47.9878 108.504 48.4078 108.388 48.8878 108.388C49.3518 108.388 49.7638 108.492 50.1238 108.7C50.4918 108.908 50.7798 109.196 50.9878 109.564C51.2038 109.932 51.3118 110.348 51.3118 110.812V115H50.1838V111.172C50.1838 110.812 50.1198 110.508 49.9918 110.26C49.8638 110.012 49.6798 109.82 49.4398 109.684C49.2078 109.54 48.9398 109.468 48.6358 109.468C48.3318 109.468 48.0598 109.54 47.8198 109.684C47.5878 109.82 47.4038 110.016 47.2678 110.272C47.1318 110.52 47.0638 110.82 47.0638 111.172V115H45.9478ZM55.7528 117.64C55.2968 117.64 54.8728 117.568 54.4808 117.424C54.0968 117.28 53.7648 117.08 53.4848 116.824C53.2128 116.576 53.0048 116.284 52.8608 115.948L53.9048 115.468C54.0168 115.772 54.2288 116.028 54.5408 116.236C54.8608 116.452 55.2608 116.56 55.7408 116.56C56.1088 116.56 56.4408 116.488 56.7368 116.344C57.0408 116.208 57.2808 116 57.4568 115.72C57.6328 115.448 57.7208 115.116 57.7208 114.724V113.272L57.9248 113.488C57.7008 113.928 57.3768 114.264 56.9528 114.496C56.5368 114.728 56.0768 114.844 55.5728 114.844C54.9648 114.844 54.4208 114.704 53.9408 114.424C53.4608 114.136 53.0848 113.748 52.8128 113.26C52.5408 112.764 52.4048 112.216 52.4048 111.616C52.4048 111.008 52.5408 110.46 52.8128 109.972C53.0848 109.484 53.4568 109.1 53.9288 108.82C54.4088 108.532 54.9528 108.388 55.5608 108.388C56.0648 108.388 56.5208 108.504 56.9288 108.736C57.3448 108.96 57.6768 109.272 57.9248 109.672L57.7568 109.972V108.532H58.8488V114.724C58.8488 115.284 58.7168 115.784 58.4528 116.224C58.1888 116.664 57.8208 117.008 57.3488 117.256C56.8848 117.512 56.3528 117.64 55.7528 117.64ZM55.6688 113.764C56.0528 113.764 56.3968 113.668 56.7008 113.476C57.0128 113.284 57.2608 113.028 57.4448 112.708C57.6288 112.38 57.7208 112.016 57.7208 111.616C57.7208 111.224 57.6288 110.864 57.4448 110.536C57.2608 110.208 57.0128 109.948 56.7008 109.756C56.3968 109.564 56.0528 109.468 55.6688 109.468C55.2768 109.468 54.9208 109.564 54.6008 109.756C54.2808 109.948 54.0288 110.208 53.8448 110.536C53.6688 110.856 53.5808 111.216 53.5808 111.616C53.5808 112.016 53.6688 112.38 53.8448 112.708C54.0288 113.028 54.2768 113.284 54.5888 113.476C54.9088 113.668 55.2688 113.764 55.6688 113.764ZM63.8651 115V107.14H61.4411V106.06H67.4411V107.14H65.0531V115H63.8651ZM67.4878 115V108.532H68.5798V109.72L68.4598 109.552C68.6118 109.184 68.8438 108.912 69.1558 108.736C69.4678 108.552 69.8478 108.46 70.2958 108.46H70.6918V109.516H70.1278C69.6718 109.516 69.3038 109.66 69.0238 109.948C68.7438 110.228 68.6038 110.628 68.6038 111.148V115H67.4878ZM74.5151 115.144C73.8911 115.144 73.3271 115 72.8231 114.712C72.3191 114.416 71.9191 114.012 71.6231 113.5C71.3271 112.988 71.1791 112.408 71.1791 111.76C71.1791 111.112 71.3231 110.536 71.6111 110.032C71.9071 109.528 72.3071 109.128 72.8111 108.832C73.3151 108.536 73.8831 108.388 74.5151 108.388C75.1391 108.388 75.7031 108.536 76.2071 108.832C76.7111 109.12 77.1071 109.516 77.3951 110.02C77.6911 110.524 77.8391 111.104 77.8391 111.76C77.8391 112.416 77.6871 113 77.3831 113.512C77.0791 114.016 76.6751 114.416 76.1711 114.712C75.6751 115 75.1231 115.144 74.5151 115.144ZM74.5151 114.064C74.9151 114.064 75.2751 113.964 75.5951 113.764C75.9231 113.564 76.1791 113.288 76.3631 112.936C76.5551 112.584 76.6511 112.192 76.6511 111.76C76.6511 111.32 76.5551 110.932 76.3631 110.596C76.1791 110.252 75.9231 109.98 75.5951 109.78C75.2751 109.572 74.9151 109.468 74.5151 109.468C74.1071 109.468 73.7391 109.572 73.4111 109.78C73.0911 109.98 72.8351 110.252 72.6431 110.596C72.4511 110.932 72.3551 111.32 72.3551 111.76C72.3551 112.192 72.4511 112.584 72.6431 112.936C72.8351 113.288 73.0911 113.564 73.4111 113.764C73.7391 113.964 74.1071 114.064 74.5151 114.064ZM81.3467 115.144C80.8827 115.144 80.4627 115.036 80.0867 114.82C79.7187 114.604 79.4307 114.304 79.2227 113.92C79.0227 113.528 78.9227 113.08 78.9227 112.576V108.532H80.0387V112.456C80.0387 112.776 80.1027 113.056 80.2307 113.296C80.3667 113.536 80.5507 113.724 80.7827 113.86C81.0227 113.996 81.2947 114.064 81.5987 114.064C81.9027 114.064 82.1707 113.996 82.4027 113.86C82.6427 113.724 82.8267 113.528 82.9547 113.272C83.0907 113.016 83.1587 112.712 83.1587 112.36V108.532H84.2867V115H83.1947V113.74L83.3747 113.848C83.2227 114.256 82.9627 114.576 82.5947 114.808C82.2347 115.032 81.8187 115.144 81.3467 115.144ZM89.1236 115.144C88.6036 115.144 88.1276 115.028 87.6956 114.796C87.2716 114.564 86.9436 114.236 86.7116 113.812L86.8676 113.62V115H85.7756V105.916H86.8916V109.924L86.7236 109.648C86.9636 109.264 87.2916 108.96 87.7076 108.736C88.1236 108.504 88.5996 108.388 89.1356 108.388C89.7436 108.388 90.2876 108.536 90.7676 108.832C91.2556 109.128 91.6396 109.532 91.9196 110.044C92.1996 110.548 92.3396 111.124 92.3396 111.772C92.3396 112.404 92.1996 112.976 91.9196 113.488C91.6396 114 91.2556 114.404 90.7676 114.7C90.2876 114.996 89.7396 115.144 89.1236 115.144ZM89.0396 114.064C89.4476 114.064 89.8116 113.964 90.1316 113.764C90.4516 113.564 90.6996 113.292 90.8756 112.948C91.0596 112.596 91.1516 112.204 91.1516 111.772C91.1516 111.324 91.0596 110.932 90.8756 110.596C90.6996 110.252 90.4516 109.98 90.1316 109.78C89.8116 109.572 89.4476 109.468 89.0396 109.468C88.6316 109.468 88.2636 109.568 87.9356 109.768C87.6156 109.968 87.3596 110.244 87.1676 110.596C86.9836 110.94 86.8916 111.332 86.8916 111.772C86.8916 112.204 86.9836 112.596 87.1676 112.948C87.3596 113.292 87.6156 113.564 87.9356 113.764C88.2636 113.964 88.6316 114.064 89.0396 114.064ZM93.563 115V105.916H94.679V115H93.563ZM99.1466 115.144C98.5226 115.144 97.9666 114.996 97.4786 114.7C96.9906 114.404 96.6066 114 96.3266 113.488C96.0466 112.968 95.9066 112.388 95.9066 111.748C95.9066 111.1 96.0426 110.524 96.3146 110.02C96.5946 109.516 96.9706 109.12 97.4426 108.832C97.9226 108.536 98.4586 108.388 99.0506 108.388C99.5306 108.388 99.9546 108.476 100.323 108.652C100.699 108.82 101.015 109.052 101.271 109.348C101.535 109.636 101.735 109.968 101.871 110.344C102.015 110.712 102.087 111.096 102.087 111.496C102.087 111.584 102.079 111.684 102.063 111.796C102.055 111.9 102.043 112 102.027 112.096H96.7226V111.136H101.379L100.851 111.568C100.923 111.152 100.883 110.78 100.731 110.452C100.579 110.124 100.355 109.864 100.059 109.672C99.7626 109.48 99.4266 109.384 99.0506 109.384C98.6746 109.384 98.3306 109.48 98.0186 109.672C97.7066 109.864 97.4626 110.14 97.2866 110.5C97.1186 110.852 97.0506 111.272 97.0826 111.76C97.0506 112.232 97.1226 112.648 97.2986 113.008C97.4826 113.36 97.7386 113.636 98.0666 113.836C98.4026 114.028 98.7666 114.124 99.1586 114.124C99.5906 114.124 99.9546 114.024 100.251 113.824C100.547 113.624 100.787 113.368 100.971 113.056L101.907 113.536C101.779 113.832 101.579 114.104 101.307 114.352C101.043 114.592 100.727 114.784 100.359 114.928C99.9986 115.072 99.5946 115.144 99.1466 115.144ZM105.136 115V108.532H106.252V115H105.136ZM105.136 107.5V106.06H106.252V107.5H105.136ZM107.744 115V108.532H108.836V109.792L108.656 109.684C108.816 109.276 109.072 108.96 109.424 108.736C109.784 108.504 110.204 108.388 110.684 108.388C111.148 108.388 111.56 108.492 111.92 108.7C112.288 108.908 112.576 109.196 112.784 109.564C113 109.932 113.108 110.348 113.108 110.812V115H111.98V111.172C111.98 110.812 111.916 110.508 111.788 110.26C111.66 110.012 111.476 109.82 111.236 109.684C111.004 109.54 110.736 109.468 110.432 109.468C110.128 109.468 109.856 109.54 109.616 109.684C109.384 109.82 109.2 110.016 109.064 110.272C108.928 110.52 108.86 110.82 108.86 111.172V115H107.744ZM116.431 115V106.06H117.607V113.92H121.531V115H116.431ZM125.457 115.144C124.833 115.144 124.277 114.996 123.789 114.7C123.301 114.404 122.917 114 122.637 113.488C122.357 112.968 122.217 112.388 122.217 111.748C122.217 111.1 122.353 110.524 122.625 110.02C122.905 109.516 123.281 109.12 123.753 108.832C124.233 108.536 124.769 108.388 125.361 108.388C125.841 108.388 126.265 108.476 126.633 108.652C127.009 108.82 127.325 109.052 127.581 109.348C127.845 109.636 128.045 109.968 128.181 110.344C128.325 110.712 128.397 111.096 128.397 111.496C128.397 111.584 128.389 111.684 128.373 111.796C128.365 111.9 128.353 112 128.337 112.096H123.033V111.136H127.689L127.161 111.568C127.233 111.152 127.193 110.78 127.041 110.452C126.889 110.124 126.665 109.864 126.369 109.672C126.073 109.48 125.737 109.384 125.361 109.384C124.985 109.384 124.641 109.48 124.329 109.672C124.017 109.864 123.773 110.14 123.597 110.5C123.429 110.852 123.361 111.272 123.393 111.76C123.361 112.232 123.433 112.648 123.609 113.008C123.793 113.36 124.049 113.636 124.377 113.836C124.713 114.028 125.077 114.124 125.469 114.124C125.901 114.124 126.265 114.024 126.561 113.824C126.857 113.624 127.097 113.368 127.281 113.056L128.217 113.536C128.089 113.832 127.889 114.104 127.617 114.352C127.353 114.592 127.037 114.784 126.669 114.928C126.309 115.072 125.905 115.144 125.457 115.144ZM131.426 115.144C131.002 115.144 130.626 115.068 130.298 114.916C129.978 114.756 129.726 114.54 129.542 114.268C129.358 113.988 129.266 113.668 129.266 113.308C129.266 112.964 129.338 112.656 129.482 112.384C129.634 112.104 129.866 111.868 130.178 111.676C130.498 111.484 130.898 111.348 131.378 111.268L133.778 110.872V111.808L131.63 112.168C131.214 112.24 130.91 112.372 130.718 112.564C130.534 112.756 130.442 112.992 130.442 113.272C130.442 113.536 130.546 113.756 130.754 113.932C130.97 114.108 131.238 114.196 131.558 114.196C131.966 114.196 132.318 114.112 132.614 113.944C132.918 113.768 133.154 113.532 133.322 113.236C133.498 112.94 133.586 112.612 133.586 112.252V110.608C133.586 110.256 133.454 109.972 133.19 109.756C132.934 109.532 132.594 109.42 132.17 109.42C131.802 109.42 131.474 109.516 131.186 109.708C130.906 109.892 130.698 110.14 130.562 110.452L129.59 109.948C129.71 109.652 129.902 109.388 130.166 109.156C130.43 108.916 130.738 108.728 131.09 108.592C131.442 108.456 131.81 108.388 132.194 108.388C132.69 108.388 133.126 108.484 133.502 108.676C133.878 108.86 134.17 109.12 134.378 109.456C134.594 109.784 134.702 110.168 134.702 110.608V115H133.61V113.776L133.814 113.848C133.678 114.104 133.494 114.328 133.262 114.52C133.03 114.712 132.758 114.864 132.446 114.976C132.134 115.088 131.794 115.144 131.426 115.144ZM136.192 115V108.532H137.284V109.72L137.164 109.552C137.316 109.184 137.548 108.912 137.86 108.736C138.172 108.552 138.552 108.46 139 108.46H139.396V109.516H138.832C138.376 109.516 138.008 109.66 137.728 109.948C137.448 110.228 137.308 110.628 137.308 111.148V115H136.192ZM140.147 115V108.532H141.239V109.792L141.059 109.684C141.219 109.276 141.475 108.96 141.827 108.736C142.187 108.504 142.607 108.388 143.087 108.388C143.551 108.388 143.963 108.492 144.323 108.7C144.691 108.908 144.979 109.196 145.187 109.564C145.403 109.932 145.511 110.348 145.511 110.812V115H144.383V111.172C144.383 110.812 144.319 110.508 144.191 110.26C144.063 110.012 143.879 109.82 143.639 109.684C143.407 109.54 143.139 109.468 142.835 109.468C142.531 109.468 142.259 109.54 142.019 109.684C141.787 109.82 141.603 110.016 141.467 110.272C141.331 110.52 141.263 110.82 141.263 111.172V115H140.147ZM146.868 115V108.532H147.984V115H146.868ZM146.868 107.5V106.06H147.984V107.5H146.868ZM149.476 115V108.532H150.568V109.792L150.388 109.684C150.548 109.276 150.804 108.96 151.156 108.736C151.516 108.504 151.936 108.388 152.416 108.388C152.88 108.388 153.292 108.492 153.652 108.7C154.02 108.908 154.308 109.196 154.516 109.564C154.732 109.932 154.84 110.348 154.84 110.812V115H153.712V111.172C153.712 110.812 153.648 110.508 153.52 110.26C153.392 110.012 153.208 109.82 152.968 109.684C152.736 109.54 152.468 109.468 152.164 109.468C151.86 109.468 151.588 109.54 151.348 109.684C151.116 109.82 150.932 110.016 150.796 110.272C150.66 110.52 150.592 110.82 150.592 111.172V115H149.476ZM159.281 117.64C158.825 117.64 158.401 117.568 158.009 117.424C157.625 117.28 157.293 117.08 157.013 116.824C156.741 116.576 156.533 116.284 156.389 115.948L157.433 115.468C157.545 115.772 157.757 116.028 158.069 116.236C158.389 116.452 158.789 116.56 159.269 116.56C159.637 116.56 159.969 116.488 160.265 116.344C160.569 116.208 160.809 116 160.985 115.72C161.161 115.448 161.249 115.116 161.249 114.724V113.272L161.453 113.488C161.229 113.928 160.905 114.264 160.481 114.496C160.065 114.728 159.605 114.844 159.101 114.844C158.493 114.844 157.949 114.704 157.469 114.424C156.989 114.136 156.613 113.748 156.341 113.26C156.069 112.764 155.933 112.216 155.933 111.616C155.933 111.008 156.069 110.46 156.341 109.972C156.613 109.484 156.985 109.1 157.457 108.82C157.937 108.532 158.481 108.388 159.089 108.388C159.593 108.388 160.049 108.504 160.457 108.736C160.873 108.96 161.205 109.272 161.453 109.672L161.285 109.972V108.532H162.377V114.724C162.377 115.284 162.245 115.784 161.981 116.224C161.717 116.664 161.349 117.008 160.877 117.256C160.413 117.512 159.881 117.64 159.281 117.64ZM159.197 113.764C159.581 113.764 159.925 113.668 160.229 113.476C160.541 113.284 160.789 113.028 160.973 112.708C161.157 112.38 161.249 112.016 161.249 111.616C161.249 111.224 161.157 110.864 160.973 110.536C160.789 110.208 160.541 109.948 160.229 109.756C159.925 109.564 159.581 109.468 159.197 109.468C158.805 109.468 158.449 109.564 158.129 109.756C157.809 109.948 157.557 110.208 157.373 110.536C157.197 110.856 157.109 111.216 157.109 111.616C157.109 112.016 157.197 112.38 157.373 112.708C157.557 113.028 157.805 113.284 158.117 113.476C158.437 113.668 158.797 113.764 159.197 113.764ZM164.323 115V113.56H165.487V115H164.323ZM22.0379 130V121.06H25.1939C25.7859 121.06 26.3059 121.172 26.7539 121.396C27.2019 121.62 27.5499 121.94 27.7979 122.356C28.0539 122.772 28.1819 123.26 28.1819 123.82C28.1819 124.38 28.0539 124.868 27.7979 125.284C27.5499 125.692 27.2019 126.012 26.7539 126.244C26.3139 126.468 25.7939 126.58 25.1939 126.58H23.2139V130H22.0379ZM23.2139 125.5H25.2299C25.5899 125.5 25.9019 125.432 26.1659 125.296C26.4299 125.16 26.6339 124.964 26.7779 124.708C26.9219 124.452 26.9939 124.156 26.9939 123.82C26.9939 123.476 26.9219 123.18 26.7779 122.932C26.6339 122.676 26.4299 122.48 26.1659 122.344C25.9019 122.208 25.5899 122.14 25.2299 122.14H23.2139V125.5ZM29.4003 130V120.916H30.5163V130H29.4003ZM34.9839 130.144C34.3599 130.144 33.8039 129.996 33.3159 129.7C32.8279 129.404 32.4439 129 32.1639 128.488C31.8839 127.968 31.7439 127.388 31.7439 126.748C31.7439 126.1 31.8799 125.524 32.1519 125.02C32.4319 124.516 32.8079 124.12 33.2799 123.832C33.7599 123.536 34.2959 123.388 34.8879 123.388C35.3679 123.388 35.7919 123.476 36.1599 123.652C36.5359 123.82 36.8519 124.052 37.1079 124.348C37.3719 124.636 37.5719 124.968 37.7079 125.344C37.8519 125.712 37.9239 126.096 37.9239 126.496C37.9239 126.584 37.9159 126.684 37.8999 126.796C37.8919 126.9 37.8799 127 37.8639 127.096H32.5599V126.136H37.2159L36.6879 126.568C36.7599 126.152 36.7199 125.78 36.5679 125.452C36.4159 125.124 36.1919 124.864 35.8959 124.672C35.5999 124.48 35.2639 124.384 34.8879 124.384C34.5119 124.384 34.1679 124.48 33.8559 124.672C33.5439 124.864 33.2999 125.14 33.1239 125.5C32.9559 125.852 32.8879 126.272 32.9199 126.76C32.8879 127.232 32.9599 127.648 33.1359 128.008C33.3199 128.36 33.5759 128.636 33.9039 128.836C34.2399 129.028 34.6039 129.124 34.9959 129.124C35.4279 129.124 35.7919 129.024 36.0879 128.824C36.3839 128.624 36.6239 128.368 36.8079 128.056L37.7439 128.536C37.6159 128.832 37.4159 129.104 37.1439 129.352C36.8799 129.592 36.5639 129.784 36.1959 129.928C35.8359 130.072 35.4319 130.144 34.9839 130.144ZM40.953 130.144C40.529 130.144 40.153 130.068 39.825 129.916C39.505 129.756 39.253 129.54 39.069 129.268C38.885 128.988 38.793 128.668 38.793 128.308C38.793 127.964 38.865 127.656 39.009 127.384C39.161 127.104 39.393 126.868 39.705 126.676C40.025 126.484 40.425 126.348 40.905 126.268L43.305 125.872V126.808L41.157 127.168C40.741 127.24 40.437 127.372 40.245 127.564C40.061 127.756 39.969 127.992 39.969 128.272C39.969 128.536 40.073 128.756 40.281 128.932C40.497 129.108 40.765 129.196 41.085 129.196C41.493 129.196 41.845 129.112 42.141 128.944C42.445 128.768 42.681 128.532 42.849 128.236C43.025 127.94 43.113 127.612 43.113 127.252V125.608C43.113 125.256 42.981 124.972 42.717 124.756C42.461 124.532 42.121 124.42 41.697 124.42C41.329 124.42 41.001 124.516 40.713 124.708C40.433 124.892 40.225 125.14 40.089 125.452L39.117 124.948C39.237 124.652 39.429 124.388 39.693 124.156C39.957 123.916 40.265 123.728 40.617 123.592C40.969 123.456 41.337 123.388 41.721 123.388C42.217 123.388 42.653 123.484 43.029 123.676C43.405 123.86 43.697 124.12 43.905 124.456C44.121 124.784 44.229 125.168 44.229 125.608V130H43.137V128.776L43.341 128.848C43.205 129.104 43.021 129.328 42.789 129.52C42.557 129.712 42.285 129.864 41.973 129.976C41.661 130.088 41.321 130.144 40.953 130.144ZM48.0353 130.144C47.3873 130.144 46.8233 129.984 46.3433 129.664C45.8633 129.344 45.5233 128.912 45.3233 128.368L46.2113 127.936C46.3953 128.32 46.6473 128.624 46.9673 128.848C47.2873 129.072 47.6433 129.184 48.0353 129.184C48.3873 129.184 48.6793 129.1 48.9113 128.932C49.1433 128.764 49.2593 128.544 49.2593 128.272C49.2593 128.08 49.2033 127.928 49.0913 127.816C48.9873 127.696 48.8593 127.604 48.7073 127.54C48.5553 127.468 48.4153 127.416 48.2873 127.384L47.3153 127.108C46.7313 126.94 46.3033 126.7 46.0313 126.388C45.7673 126.076 45.6353 125.712 45.6353 125.296C45.6353 124.912 45.7313 124.58 45.9233 124.3C46.1233 124.012 46.3913 123.788 46.7273 123.628C47.0713 123.468 47.4553 123.388 47.8793 123.388C48.4473 123.388 48.9553 123.532 49.4033 123.82C49.8593 124.108 50.1833 124.512 50.3753 125.032L49.4633 125.452C49.3193 125.116 49.1033 124.852 48.8153 124.66C48.5273 124.46 48.2033 124.36 47.8433 124.36C47.5153 124.36 47.2553 124.444 47.0633 124.612C46.8713 124.772 46.7753 124.976 46.7753 125.224C46.7753 125.408 46.8233 125.56 46.9193 125.68C47.0153 125.792 47.1313 125.88 47.2673 125.944C47.4033 126 47.5353 126.048 47.6633 126.088L48.7193 126.4C49.2473 126.552 49.6553 126.788 49.9433 127.108C50.2393 127.428 50.3873 127.812 50.3873 128.26C50.3873 128.62 50.2873 128.944 50.0873 129.232C49.8873 129.52 49.6113 129.744 49.2593 129.904C48.9073 130.064 48.4993 130.144 48.0353 130.144ZM54.5842 130.144C53.9602 130.144 53.4042 129.996 52.9162 129.7C52.4282 129.404 52.0442 129 51.7642 128.488C51.4842 127.968 51.3442 127.388 51.3442 126.748C51.3442 126.1 51.4802 125.524 51.7522 125.02C52.0322 124.516 52.4082 124.12 52.8802 123.832C53.3602 123.536 53.8962 123.388 54.4882 123.388C54.9682 123.388 55.3922 123.476 55.7602 123.652C56.1362 123.82 56.4522 124.052 56.7082 124.348C56.9722 124.636 57.1722 124.968 57.3082 125.344C57.4522 125.712 57.5242 126.096 57.5242 126.496C57.5242 126.584 57.5162 126.684 57.5002 126.796C57.4922 126.9 57.4802 127 57.4642 127.096H52.1602V126.136H56.8162L56.2882 126.568C56.3602 126.152 56.3202 125.78 56.1682 125.452C56.0162 125.124 55.7922 124.864 55.4962 124.672C55.2002 124.48 54.8642 124.384 54.4882 124.384C54.1122 124.384 53.7682 124.48 53.4562 124.672C53.1442 124.864 52.9002 125.14 52.7242 125.5C52.5562 125.852 52.4882 126.272 52.5202 126.76C52.4882 127.232 52.5602 127.648 52.7362 128.008C52.9202 128.36 53.1762 128.636 53.5042 128.836C53.8402 129.028 54.2042 129.124 54.5962 129.124C55.0282 129.124 55.3922 129.024 55.6882 128.824C55.9842 128.624 56.2242 128.368 56.4082 128.056L57.3442 128.536C57.2162 128.832 57.0162 129.104 56.7442 129.352C56.4802 129.592 56.1642 129.784 55.7962 129.928C55.4362 130.072 55.0322 130.144 54.5842 130.144ZM63.5735 130.144C62.9415 130.144 62.3775 129.996 61.8815 129.7C61.3935 129.404 61.0095 129 60.7295 128.488C60.4495 127.976 60.3095 127.4 60.3095 126.76C60.3095 126.112 60.4495 125.536 60.7295 125.032C61.0095 124.528 61.3935 124.128 61.8815 123.832C62.3775 123.536 62.9415 123.388 63.5735 123.388C63.9975 123.388 64.3935 123.464 64.7615 123.616C65.1295 123.768 65.4535 123.972 65.7335 124.228C66.0135 124.484 66.2175 124.784 66.3455 125.128L65.3495 125.608C65.1975 125.272 64.9655 125 64.6535 124.792C64.3415 124.576 63.9815 124.468 63.5735 124.468C63.1815 124.468 62.8255 124.568 62.5055 124.768C62.1935 124.968 61.9455 125.24 61.7615 125.584C61.5775 125.928 61.4855 126.324 61.4855 126.772C61.4855 127.204 61.5775 127.596 61.7615 127.948C61.9455 128.292 62.1935 128.564 62.5055 128.764C62.8255 128.964 63.1815 129.064 63.5735 129.064C63.9815 129.064 64.3415 128.96 64.6535 128.752C64.9655 128.536 65.1975 128.252 65.3495 127.9L66.3455 128.404C66.2175 128.74 66.0135 129.04 65.7335 129.304C65.4535 129.56 65.1295 129.764 64.7615 129.916C64.3935 130.068 63.9975 130.144 63.5735 130.144ZM70.636 130.144C70.012 130.144 69.448 130 68.944 129.712C68.44 129.416 68.04 129.012 67.744 128.5C67.448 127.988 67.3 127.408 67.3 126.76C67.3 126.112 67.444 125.536 67.732 125.032C68.028 124.528 68.428 124.128 68.932 123.832C69.436 123.536 70.004 123.388 70.636 123.388C71.26 123.388 71.824 123.536 72.328 123.832C72.832 124.12 73.228 124.516 73.516 125.02C73.812 125.524 73.96 126.104 73.96 126.76C73.96 127.416 73.808 128 73.504 128.512C73.2 129.016 72.796 129.416 72.292 129.712C71.796 130 71.244 130.144 70.636 130.144ZM70.636 129.064C71.036 129.064 71.396 128.964 71.716 128.764C72.044 128.564 72.3 128.288 72.484 127.936C72.676 127.584 72.772 127.192 72.772 126.76C72.772 126.32 72.676 125.932 72.484 125.596C72.3 125.252 72.044 124.98 71.716 124.78C71.396 124.572 71.036 124.468 70.636 124.468C70.228 124.468 69.86 124.572 69.532 124.78C69.212 124.98 68.956 125.252 68.764 125.596C68.572 125.932 68.476 126.32 68.476 126.76C68.476 127.192 68.572 127.584 68.764 127.936C68.956 128.288 69.212 128.564 69.532 128.764C69.86 128.964 70.228 129.064 70.636 129.064ZM75.1756 130V123.532H76.2676V124.792L76.0876 124.684C76.2476 124.276 76.5036 123.96 76.8556 123.736C77.2156 123.504 77.6356 123.388 78.1156 123.388C78.5796 123.388 78.9916 123.492 79.3516 123.7C79.7196 123.908 80.0076 124.196 80.2156 124.564C80.4316 124.932 80.5396 125.348 80.5396 125.812V130H79.4116V126.172C79.4116 125.812 79.3476 125.508 79.2196 125.26C79.0916 125.012 78.9076 124.82 78.6676 124.684C78.4356 124.54 78.1676 124.468 77.8636 124.468C77.5596 124.468 77.2876 124.54 77.0476 124.684C76.8156 124.82 76.6316 125.016 76.4956 125.272C76.3596 125.52 76.2916 125.82 76.2916 126.172V130H75.1756ZM84.5245 130.072C83.8925 130.072 83.4045 129.892 83.0605 129.532C82.7245 129.172 82.5565 128.664 82.5565 128.008V124.6H81.3805V123.532H81.6205C81.9085 123.532 82.1365 123.444 82.3045 123.268C82.4725 123.092 82.5565 122.86 82.5565 122.572V122.044H83.6725V123.532H85.1245V124.6H83.6725V127.972C83.6725 128.188 83.7045 128.376 83.7685 128.536C83.8405 128.696 83.9565 128.824 84.1165 128.92C84.2765 129.008 84.4885 129.052 84.7525 129.052C84.8085 129.052 84.8765 129.048 84.9565 129.04C85.0445 129.032 85.1245 129.024 85.1965 129.016V130C85.0925 130.024 84.9765 130.04 84.8485 130.048C84.7205 130.064 84.6125 130.072 84.5245 130.072ZM88.2283 130.144C87.8043 130.144 87.4283 130.068 87.1003 129.916C86.7803 129.756 86.5283 129.54 86.3443 129.268C86.1603 128.988 86.0683 128.668 86.0683 128.308C86.0683 127.964 86.1403 127.656 86.2843 127.384C86.4363 127.104 86.6683 126.868 86.9803 126.676C87.3003 126.484 87.7003 126.348 88.1803 126.268L90.5803 125.872V126.808L88.4323 127.168C88.0163 127.24 87.7123 127.372 87.5203 127.564C87.3363 127.756 87.2443 127.992 87.2443 128.272C87.2443 128.536 87.3483 128.756 87.5563 128.932C87.7723 129.108 88.0403 129.196 88.3603 129.196C88.7683 129.196 89.1203 129.112 89.4163 128.944C89.7203 128.768 89.9563 128.532 90.1243 128.236C90.3003 127.94 90.3883 127.612 90.3883 127.252V125.608C90.3883 125.256 90.2563 124.972 89.9923 124.756C89.7363 124.532 89.3963 124.42 88.9723 124.42C88.6043 124.42 88.2763 124.516 87.9883 124.708C87.7083 124.892 87.5003 125.14 87.3643 125.452L86.3923 124.948C86.5123 124.652 86.7043 124.388 86.9683 124.156C87.2323 123.916 87.5403 123.728 87.8923 123.592C88.2443 123.456 88.6123 123.388 88.9963 123.388C89.4923 123.388 89.9283 123.484 90.3043 123.676C90.6803 123.86 90.9723 124.12 91.1803 124.456C91.3963 124.784 91.5043 125.168 91.5043 125.608V130H90.4123V128.776L90.6163 128.848C90.4803 129.104 90.2963 129.328 90.0643 129.52C89.8323 129.712 89.5603 129.864 89.2483 129.976C88.9363 130.088 88.5963 130.144 88.2283 130.144ZM95.9946 130.144C95.3626 130.144 94.7986 129.996 94.3026 129.7C93.8146 129.404 93.4306 129 93.1506 128.488C92.8706 127.976 92.7306 127.4 92.7306 126.76C92.7306 126.112 92.8706 125.536 93.1506 125.032C93.4306 124.528 93.8146 124.128 94.3026 123.832C94.7986 123.536 95.3626 123.388 95.9946 123.388C96.4186 123.388 96.8146 123.464 97.1826 123.616C97.5506 123.768 97.8746 123.972 98.1546 124.228C98.4346 124.484 98.6386 124.784 98.7666 125.128L97.7706 125.608C97.6186 125.272 97.3866 125 97.0746 124.792C96.7626 124.576 96.4026 124.468 95.9946 124.468C95.6026 124.468 95.2466 124.568 94.9266 124.768C94.6146 124.968 94.3666 125.24 94.1826 125.584C93.9986 125.928 93.9066 126.324 93.9066 126.772C93.9066 127.204 93.9986 127.596 94.1826 127.948C94.3666 128.292 94.6146 128.564 94.9266 128.764C95.2466 128.964 95.6026 129.064 95.9946 129.064C96.4026 129.064 96.7626 128.96 97.0746 128.752C97.3866 128.536 97.6186 128.252 97.7706 127.9L98.7666 128.404C98.6386 128.74 98.4346 129.04 98.1546 129.304C97.8746 129.56 97.5506 129.764 97.1826 129.916C96.8146 130.068 96.4186 130.144 95.9946 130.144ZM102.613 130.072C101.981 130.072 101.493 129.892 101.149 129.532C100.813 129.172 100.645 128.664 100.645 128.008V124.6H99.4691V123.532H99.7091C99.9971 123.532 100.225 123.444 100.393 123.268C100.561 123.092 100.645 122.86 100.645 122.572V122.044H101.761V123.532H103.213V124.6H101.761V127.972C101.761 128.188 101.793 128.376 101.857 128.536C101.929 128.696 102.045 128.824 102.205 128.92C102.365 129.008 102.577 129.052 102.841 129.052C102.897 129.052 102.965 129.048 103.045 129.04C103.133 129.032 103.213 129.024 103.285 129.016V130C103.181 130.024 103.065 130.04 102.937 130.048C102.809 130.064 102.701 130.072 102.613 130.072ZM108.629 130.144C108.165 130.144 107.745 130.036 107.369 129.82C107.001 129.604 106.713 129.304 106.505 128.92C106.305 128.528 106.205 128.08 106.205 127.576V123.532H107.321V127.456C107.321 127.776 107.385 128.056 107.513 128.296C107.649 128.536 107.833 128.724 108.065 128.86C108.305 128.996 108.577 129.064 108.881 129.064C109.185 129.064 109.453 128.996 109.685 128.86C109.925 128.724 110.109 128.528 110.237 128.272C110.373 128.016 110.441 127.712 110.441 127.36V123.532H111.569V130H110.477V128.74L110.657 128.848C110.505 129.256 110.245 129.576 109.877 129.808C109.517 130.032 109.101 130.144 108.629 130.144ZM115.374 130.144C114.726 130.144 114.162 129.984 113.682 129.664C113.202 129.344 112.862 128.912 112.662 128.368L113.55 127.936C113.734 128.32 113.986 128.624 114.306 128.848C114.626 129.072 114.982 129.184 115.374 129.184C115.726 129.184 116.018 129.1 116.25 128.932C116.482 128.764 116.598 128.544 116.598 128.272C116.598 128.08 116.542 127.928 116.43 127.816C116.326 127.696 116.198 127.604 116.046 127.54C115.894 127.468 115.754 127.416 115.626 127.384L114.654 127.108C114.07 126.94 113.642 126.7 113.37 126.388C113.106 126.076 112.974 125.712 112.974 125.296C112.974 124.912 113.07 124.58 113.262 124.3C113.462 124.012 113.73 123.788 114.066 123.628C114.41 123.468 114.794 123.388 115.218 123.388C115.786 123.388 116.294 123.532 116.742 123.82C117.198 124.108 117.522 124.512 117.714 125.032L116.802 125.452C116.658 125.116 116.442 124.852 116.154 124.66C115.866 124.46 115.542 124.36 115.182 124.36C114.854 124.36 114.594 124.444 114.402 124.612C114.21 124.772 114.114 124.976 114.114 125.224C114.114 125.408 114.162 125.56 114.258 125.68C114.354 125.792 114.47 125.88 114.606 125.944C114.742 126 114.874 126.048 115.002 126.088L116.058 126.4C116.586 126.552 116.994 126.788 117.282 127.108C117.578 127.428 117.726 127.812 117.726 128.26C117.726 128.62 117.626 128.944 117.426 129.232C117.226 129.52 116.95 129.744 116.598 129.904C116.246 130.064 115.838 130.144 115.374 130.144ZM121.465 130V124.6H120.229V123.532H121.465V123.076C121.465 122.612 121.565 122.22 121.765 121.9C121.973 121.58 122.245 121.336 122.581 121.168C122.925 121 123.305 120.916 123.721 120.916C123.809 120.916 123.905 120.924 124.009 120.94C124.121 120.948 124.213 120.96 124.285 120.976V121.972C124.221 121.956 124.145 121.948 124.057 121.948C123.969 121.94 123.901 121.936 123.853 121.936C123.485 121.936 123.181 122.024 122.941 122.2C122.709 122.376 122.593 122.668 122.593 123.076V123.532H124.129V124.6H122.593V130H121.465ZM128.078 130.144C127.454 130.144 126.89 130 126.386 129.712C125.882 129.416 125.482 129.012 125.186 128.5C124.89 127.988 124.742 127.408 124.742 126.76C124.742 126.112 124.886 125.536 125.174 125.032C125.47 124.528 125.87 124.128 126.374 123.832C126.878 123.536 127.446 123.388 128.078 123.388C128.702 123.388 129.266 123.536 129.77 123.832C130.274 124.12 130.67 124.516 130.958 125.02C131.254 125.524 131.402 126.104 131.402 126.76C131.402 127.416 131.25 128 130.946 128.512C130.642 129.016 130.238 129.416 129.734 129.712C129.238 130 128.686 130.144 128.078 130.144ZM128.078 129.064C128.478 129.064 128.838 128.964 129.158 128.764C129.486 128.564 129.742 128.288 129.926 127.936C130.118 127.584 130.214 127.192 130.214 126.76C130.214 126.32 130.118 125.932 129.926 125.596C129.742 125.252 129.486 124.98 129.158 124.78C128.838 124.572 128.478 124.468 128.078 124.468C127.67 124.468 127.302 124.572 126.974 124.78C126.654 124.98 126.398 125.252 126.206 125.596C126.014 125.932 125.918 126.32 125.918 126.76C125.918 127.192 126.014 127.584 126.206 127.936C126.398 128.288 126.654 128.564 126.974 128.764C127.302 128.964 127.67 129.064 128.078 129.064ZM132.618 130V123.532H133.71V124.72L133.59 124.552C133.742 124.184 133.974 123.912 134.286 123.736C134.598 123.552 134.978 123.46 135.426 123.46H135.822V124.516H135.258C134.802 124.516 134.434 124.66 134.154 124.948C133.874 125.228 133.734 125.628 133.734 126.148V130H132.618ZM138.407 130V123.532H139.499V124.852L139.343 124.648C139.503 124.24 139.759 123.928 140.111 123.712C140.463 123.496 140.859 123.388 141.299 123.388C141.803 123.388 142.255 123.528 142.655 123.808C143.063 124.088 143.343 124.456 143.495 124.912L143.183 124.924C143.351 124.42 143.635 124.04 144.035 123.784C144.435 123.52 144.879 123.388 145.367 123.388C145.815 123.388 146.219 123.492 146.579 123.7C146.947 123.908 147.239 124.196 147.455 124.564C147.671 124.932 147.779 125.348 147.779 125.812V130H146.651V126.172C146.651 125.812 146.587 125.508 146.459 125.26C146.331 125.012 146.155 124.82 145.931 124.684C145.715 124.54 145.459 124.468 145.163 124.468C144.875 124.468 144.615 124.54 144.383 124.684C144.159 124.82 143.979 125.016 143.843 125.272C143.715 125.52 143.651 125.82 143.651 126.172V130H142.523V126.172C142.523 125.812 142.459 125.508 142.331 125.26C142.203 125.012 142.027 124.82 141.803 124.684C141.587 124.54 141.331 124.468 141.035 124.468C140.747 124.468 140.487 124.54 140.255 124.684C140.031 124.82 139.851 125.016 139.715 125.272C139.587 125.52 139.523 125.82 139.523 126.172V130H138.407ZM152.196 130.144C151.572 130.144 151.008 130 150.504 129.712C150 129.416 149.6 129.012 149.304 128.5C149.008 127.988 148.86 127.408 148.86 126.76C148.86 126.112 149.004 125.536 149.292 125.032C149.588 124.528 149.988 124.128 150.492 123.832C150.996 123.536 151.564 123.388 152.196 123.388C152.82 123.388 153.384 123.536 153.888 123.832C154.392 124.12 154.788 124.516 155.076 125.02C155.372 125.524 155.52 126.104 155.52 126.76C155.52 127.416 155.368 128 155.064 128.512C154.76 129.016 154.356 129.416 153.852 129.712C153.356 130 152.804 130.144 152.196 130.144ZM152.196 129.064C152.596 129.064 152.956 128.964 153.276 128.764C153.604 128.564 153.86 128.288 154.044 127.936C154.236 127.584 154.332 127.192 154.332 126.76C154.332 126.32 154.236 125.932 154.044 125.596C153.86 125.252 153.604 124.98 153.276 124.78C152.956 124.572 152.596 124.468 152.196 124.468C151.788 124.468 151.42 124.572 151.092 124.78C150.772 124.98 150.516 125.252 150.324 125.596C150.132 125.932 150.036 126.32 150.036 126.76C150.036 127.192 150.132 127.584 150.324 127.936C150.516 128.288 150.772 128.564 151.092 128.764C151.42 128.964 151.788 129.064 152.196 129.064ZM156.736 130V123.532H157.828V124.72L157.708 124.552C157.86 124.184 158.092 123.912 158.404 123.736C158.716 123.552 159.096 123.46 159.544 123.46H159.94V124.516H159.376C158.92 124.516 158.552 124.66 158.272 124.948C157.992 125.228 157.852 125.628 157.852 126.148V130H156.736ZM163.667 130.144C163.043 130.144 162.487 129.996 161.999 129.7C161.511 129.404 161.127 129 160.847 128.488C160.567 127.968 160.427 127.388 160.427 126.748C160.427 126.1 160.563 125.524 160.835 125.02C161.115 124.516 161.491 124.12 161.963 123.832C162.443 123.536 162.979 123.388 163.571 123.388C164.051 123.388 164.475 123.476 164.843 123.652C165.219 123.82 165.535 124.052 165.791 124.348C166.055 124.636 166.255 124.968 166.391 125.344C166.535 125.712 166.607 126.096 166.607 126.496C166.607 126.584 166.599 126.684 166.583 126.796C166.575 126.9 166.563 127 166.547 127.096H161.243V126.136H165.899L165.371 126.568C165.443 126.152 165.403 125.78 165.251 125.452C165.099 125.124 164.875 124.864 164.579 124.672C164.283 124.48 163.947 124.384 163.571 124.384C163.195 124.384 162.851 124.48 162.539 124.672C162.227 124.864 161.983 125.14 161.807 125.5C161.639 125.852 161.571 126.272 161.603 126.76C161.571 127.232 161.643 127.648 161.819 128.008C162.003 128.36 162.259 128.636 162.587 128.836C162.923 129.028 163.287 129.124 163.679 129.124C164.111 129.124 164.475 129.024 164.771 128.824C165.067 128.624 165.307 128.368 165.491 128.056L166.427 128.536C166.299 128.832 166.099 129.104 165.827 129.352C165.563 129.592 165.247 129.784 164.879 129.928C164.519 130.072 164.115 130.144 163.667 130.144ZM70.6941 147.4V143.62L70.8741 143.812C70.6501 144.236 70.3221 144.564 69.8901 144.796C69.4661 145.028 68.9901 145.144 68.4621 145.144C67.8541 145.144 67.3061 144.996 66.8181 144.7C66.3381 144.404 65.9581 144 65.6781 143.488C65.3981 142.976 65.2581 142.404 65.2581 141.772C65.2581 141.124 65.3981 140.548 65.6781 140.044C65.9581 139.532 66.3381 139.128 66.8181 138.832C67.3061 138.536 67.8541 138.388 68.4621 138.388C68.9981 138.388 69.4741 138.504 69.8901 138.736C70.3061 138.96 70.6341 139.264 70.8741 139.648L70.7301 139.924V138.532H71.8221V147.4H70.6941ZM68.5581 144.064C68.9661 144.064 69.3301 143.964 69.6501 143.764C69.9701 143.564 70.2221 143.292 70.4061 142.948C70.5981 142.596 70.6941 142.204 70.6941 141.772C70.6941 141.332 70.5981 140.94 70.4061 140.596C70.2221 140.244 69.9701 139.968 69.6501 139.768C69.3301 139.568 68.9661 139.468 68.5581 139.468C68.1581 139.468 67.7941 139.572 67.4661 139.78C67.1461 139.98 66.8941 140.252 66.7101 140.596C66.5261 140.932 66.4341 141.324 66.4341 141.772C66.4341 142.204 66.5261 142.596 66.7101 142.948C66.8941 143.292 67.1461 143.564 67.4661 143.764C67.7861 143.964 68.1501 144.064 68.5581 144.064ZM75.6015 145.144C75.1375 145.144 74.7175 145.036 74.3415 144.82C73.9735 144.604 73.6855 144.304 73.4775 143.92C73.2775 143.528 73.1775 143.08 73.1775 142.576V138.532H74.2935V142.456C74.2935 142.776 74.3575 143.056 74.4855 143.296C74.6215 143.536 74.8055 143.724 75.0375 143.86C75.2775 143.996 75.5495 144.064 75.8535 144.064C76.1575 144.064 76.4255 143.996 76.6575 143.86C76.8975 143.724 77.0815 143.528 77.2095 143.272C77.3455 143.016 77.4135 142.712 77.4135 142.36V138.532H78.5415V145H77.4495V143.74L77.6295 143.848C77.4775 144.256 77.2175 144.576 76.8495 144.808C76.4895 145.032 76.0735 145.144 75.6015 145.144ZM83.0064 145.144C82.3824 145.144 81.8264 144.996 81.3384 144.7C80.8504 144.404 80.4664 144 80.1864 143.488C79.9064 142.968 79.7664 142.388 79.7664 141.748C79.7664 141.1 79.9024 140.524 80.1744 140.02C80.4544 139.516 80.8304 139.12 81.3024 138.832C81.7824 138.536 82.3184 138.388 82.9104 138.388C83.3904 138.388 83.8144 138.476 84.1824 138.652C84.5584 138.82 84.8744 139.052 85.1304 139.348C85.3944 139.636 85.5944 139.968 85.7304 140.344C85.8744 140.712 85.9464 141.096 85.9464 141.496C85.9464 141.584 85.9384 141.684 85.9224 141.796C85.9144 141.9 85.9024 142 85.8864 142.096H80.5824V141.136H85.2384L84.7104 141.568C84.7824 141.152 84.7424 140.78 84.5904 140.452C84.4384 140.124 84.2144 139.864 83.9184 139.672C83.6224 139.48 83.2864 139.384 82.9104 139.384C82.5344 139.384 82.1904 139.48 81.8784 139.672C81.5664 139.864 81.3224 140.14 81.1464 140.5C80.9784 140.852 80.9104 141.272 80.9424 141.76C80.9104 142.232 80.9824 142.648 81.1584 143.008C81.3424 143.36 81.5984 143.636 81.9264 143.836C82.2624 144.028 82.6264 144.124 83.0184 144.124C83.4504 144.124 83.8144 144.024 84.1104 143.824C84.4064 143.624 84.6464 143.368 84.8304 143.056L85.7664 143.536C85.6384 143.832 85.4384 144.104 85.1664 144.352C84.9024 144.592 84.5864 144.784 84.2184 144.928C83.8584 145.072 83.4544 145.144 83.0064 145.144ZM89.4775 145.144C88.8295 145.144 88.2655 144.984 87.7855 144.664C87.3055 144.344 86.9655 143.912 86.7655 143.368L87.6535 142.936C87.8375 143.32 88.0895 143.624 88.4095 143.848C88.7295 144.072 89.0855 144.184 89.4775 144.184C89.8295 144.184 90.1215 144.1 90.3535 143.932C90.5855 143.764 90.7015 143.544 90.7015 143.272C90.7015 143.08 90.6455 142.928 90.5335 142.816C90.4295 142.696 90.3015 142.604 90.1495 142.54C89.9975 142.468 89.8575 142.416 89.7295 142.384L88.7575 142.108C88.1735 141.94 87.7455 141.7 87.4735 141.388C87.2095 141.076 87.0775 140.712 87.0775 140.296C87.0775 139.912 87.1735 139.58 87.3655 139.3C87.5655 139.012 87.8335 138.788 88.1695 138.628C88.5135 138.468 88.8975 138.388 89.3215 138.388C89.8895 138.388 90.3975 138.532 90.8455 138.82C91.3015 139.108 91.6255 139.512 91.8175 140.032L90.9055 140.452C90.7615 140.116 90.5455 139.852 90.2575 139.66C89.9695 139.46 89.6455 139.36 89.2855 139.36C88.9575 139.36 88.6975 139.444 88.5055 139.612C88.3135 139.772 88.2175 139.976 88.2175 140.224C88.2175 140.408 88.2655 140.56 88.3615 140.68C88.4575 140.792 88.5735 140.88 88.7095 140.944C88.8455 141 88.9775 141.048 89.1055 141.088L90.1615 141.4C90.6895 141.552 91.0975 141.788 91.3855 142.108C91.6815 142.428 91.8295 142.812 91.8295 143.26C91.8295 143.62 91.7295 143.944 91.5295 144.232C91.3295 144.52 91.0535 144.744 90.7015 144.904C90.3495 145.064 89.9415 145.144 89.4775 145.144ZM95.6784 145.072C95.0464 145.072 94.5584 144.892 94.2144 144.532C93.8784 144.172 93.7104 143.664 93.7104 143.008V139.6H92.5344V138.532H92.7744C93.0624 138.532 93.2904 138.444 93.4584 138.268C93.6264 138.092 93.7104 137.86 93.7104 137.572V137.044H94.8264V138.532H96.2784V139.6H94.8264V142.972C94.8264 143.188 94.8584 143.376 94.9224 143.536C94.9944 143.696 95.1104 143.824 95.2704 143.92C95.4304 144.008 95.6424 144.052 95.9064 144.052C95.9624 144.052 96.0304 144.048 96.1104 144.04C96.1984 144.032 96.2784 144.024 96.3504 144.016V145C96.2464 145.024 96.1304 145.04 96.0024 145.048C95.8744 145.064 95.7664 145.072 95.6784 145.072ZM97.5682 145V138.532H98.6842V145H97.5682ZM97.5682 137.5V136.06H98.6842V137.5H97.5682ZM103.248 145.144C102.624 145.144 102.06 145 101.556 144.712C101.052 144.416 100.652 144.012 100.356 143.5C100.06 142.988 99.9119 142.408 99.9119 141.76C99.9119 141.112 100.056 140.536 100.344 140.032C100.64 139.528 101.04 139.128 101.544 138.832C102.048 138.536 102.616 138.388 103.248 138.388C103.872 138.388 104.436 138.536 104.94 138.832C105.444 139.12 105.84 139.516 106.128 140.02C106.424 140.524 106.572 141.104 106.572 141.76C106.572 142.416 106.42 143 106.116 143.512C105.812 144.016 105.408 144.416 104.904 144.712C104.408 145 103.856 145.144 103.248 145.144ZM103.248 144.064C103.648 144.064 104.008 143.964 104.328 143.764C104.656 143.564 104.912 143.288 105.096 142.936C105.288 142.584 105.384 142.192 105.384 141.76C105.384 141.32 105.288 140.932 105.096 140.596C104.912 140.252 104.656 139.98 104.328 139.78C104.008 139.572 103.648 139.468 103.248 139.468C102.84 139.468 102.472 139.572 102.144 139.78C101.824 139.98 101.568 140.252 101.376 140.596C101.184 140.932 101.088 141.32 101.088 141.76C101.088 142.192 101.184 142.584 101.376 142.936C101.568 143.288 101.824 143.564 102.144 143.764C102.472 143.964 102.84 144.064 103.248 144.064ZM107.787 145V138.532H108.879V139.792L108.699 139.684C108.859 139.276 109.115 138.96 109.467 138.736C109.827 138.504 110.247 138.388 110.727 138.388C111.191 138.388 111.603 138.492 111.963 138.7C112.331 138.908 112.619 139.196 112.827 139.564C113.043 139.932 113.151 140.348 113.151 140.812V145H112.023V141.172C112.023 140.812 111.959 140.508 111.831 140.26C111.703 140.012 111.519 139.82 111.279 139.684C111.047 139.54 110.779 139.468 110.475 139.468C110.171 139.468 109.899 139.54 109.659 139.684C109.427 139.82 109.243 140.016 109.107 140.272C108.971 140.52 108.903 140.82 108.903 141.172V145H107.787ZM116.824 145.144C116.176 145.144 115.612 144.984 115.132 144.664C114.652 144.344 114.312 143.912 114.112 143.368L115 142.936C115.184 143.32 115.436 143.624 115.756 143.848C116.076 144.072 116.432 144.184 116.824 144.184C117.176 144.184 117.468 144.1 117.7 143.932C117.932 143.764 118.048 143.544 118.048 143.272C118.048 143.08 117.992 142.928 117.88 142.816C117.776 142.696 117.648 142.604 117.496 142.54C117.344 142.468 117.204 142.416 117.076 142.384L116.104 142.108C115.52 141.94 115.092 141.7 114.82 141.388C114.556 141.076 114.424 140.712 114.424 140.296C114.424 139.912 114.52 139.58 114.712 139.3C114.912 139.012 115.18 138.788 115.516 138.628C115.86 138.468 116.244 138.388 116.668 138.388C117.236 138.388 117.744 138.532 118.192 138.82C118.648 139.108 118.972 139.512 119.164 140.032L118.252 140.452C118.108 140.116 117.892 139.852 117.604 139.66C117.316 139.46 116.992 139.36 116.632 139.36C116.304 139.36 116.044 139.444 115.852 139.612C115.66 139.772 115.564 139.976 115.564 140.224C115.564 140.408 115.612 140.56 115.708 140.68C115.804 140.792 115.92 140.88 116.056 140.944C116.192 141 116.324 141.048 116.452 141.088L117.508 141.4C118.036 141.552 118.444 141.788 118.732 142.108C119.028 142.428 119.176 142.812 119.176 143.26C119.176 143.62 119.076 143.944 118.876 144.232C118.676 144.52 118.4 144.744 118.048 144.904C117.696 145.064 117.288 145.144 116.824 145.144ZM120.853 145V143.56H122.017V145H120.853Z" fill="white"/>
</g>
<defs>
<clipPath id="clip0_1_47099">
<rect width="188" height="248" rx="10" fill="white"/>
</clipPath>
</defs>
</svg>
